<svg width="273" height="140" viewBox="0 0 273 140" fill="none" xmlns="http://www.w3.org/2000/svg">
<path d="M0 140V0H47.2V94H110.4V140H0Z" fill="white"/>
<path fill-rule="evenodd" clip-rule="evenodd" d="M139.736 0C150.971 23.6495 175.076 40 203 40C230.924 40 255.029 23.6495 266.264 0H139.736Z" fill="white"/>
<path fill-rule="evenodd" clip-rule="evenodd" d="M134.025 140C133.351 136.101 133 132.091 133 128C133 89.3401 164.34 58 203 58C241.66 58 273 89.3401 273 128C273 132.091 272.649 136.101 271.975 140H228.305C230.033 136.363 231 132.294 231 128C231 112.536 218.464 100 203 100C187.536 100 175 112.536 175 128C175 132.294 175.967 136.363 177.695 140H134.025Z" fill="white"/>
<path d="M0 140V0H47.2V94H110.4V140H0Z" fill="white"/>
<path fill-rule="evenodd" clip-rule="evenodd" d="M139.736 0C150.971 23.6495 175.076 40 203 40C230.924 40 255.029 23.6495 266.264 0H139.736Z" fill="white"/>
<path fill-rule="evenodd" clip-rule="evenodd" d="M134.025 140C133.351 136.101 133 132.091 133 128C133 89.3401 164.34 58 203 58C241.66 58 273 89.3401 273 128C273 132.091 272.649 136.101 271.975 140H228.305C230.033 136.363 231 132.294 231 128C231 112.536 218.464 100 203 100C187.536 100 175 112.536 175 128C175 132.294 175.967 136.363 177.695 140H134.025Z" fill="white"/>
</svg>
