<svg width="706" height="144" viewBox="0 0 706 144" fill="none" xmlns="http://www.w3.org/2000/svg">
<path d="M297.6 64.7957V3.66768H308.937V55.1898H340.854V64.7957H297.6Z" fill="#42DDA4"/>
<path d="M367.518 65.407C362.751 65.407 358.506 64.3882 354.786 62.3506C351.065 60.2547 348.129 57.4021 345.978 53.7926C343.827 50.1832 342.751 46.0789 342.751 41.4797C342.751 36.8223 343.827 32.718 345.978 29.1668C348.129 25.5573 351.065 22.7338 354.786 20.6962C358.506 18.6586 362.751 17.6398 367.518 17.6398C372.343 17.6398 376.616 18.6586 380.337 20.6962C384.116 22.7338 387.052 25.5282 389.145 29.0795C391.296 32.6307 392.372 36.7641 392.372 41.4797C392.372 46.0789 391.296 50.1832 389.145 53.7926C387.052 57.4021 384.116 60.2547 380.337 62.3506C376.616 64.3882 372.343 65.407 367.518 65.407ZM367.518 56.0631C370.192 56.0631 372.576 55.4809 374.669 54.3166C376.762 53.1522 378.39 51.464 379.552 49.2517C380.773 47.0394 381.384 44.4488 381.384 41.4797C381.384 38.4524 380.773 35.8618 379.552 33.7077C378.39 31.4955 376.762 29.8072 374.669 28.6428C372.576 27.4785 370.221 26.8963 367.605 26.8963C364.931 26.8963 362.547 27.4785 360.454 28.6428C358.419 29.8072 356.791 31.4955 355.571 33.7077C354.35 35.8618 353.739 38.4524 353.739 41.4797C353.739 44.4488 354.35 47.0394 355.571 49.2517C356.791 51.464 358.419 53.1522 360.454 54.3166C362.547 55.4809 364.902 56.0631 367.518 56.0631Z" fill="#42DDA4"/>
<path d="M420.76 65.407C416.283 65.407 412.243 64.4173 408.638 62.4379C405.092 60.4003 402.301 57.6059 400.267 54.0546C398.232 50.5034 397.214 46.3117 397.214 41.4797C397.214 36.6477 398.232 32.4561 400.267 28.9048C402.301 25.3536 405.092 22.5883 408.638 20.6089C412.243 18.6295 416.283 17.6398 420.76 17.6398C424.655 17.6398 428.144 18.5131 431.225 20.2596C434.306 21.9479 436.748 24.5385 438.55 28.0316C440.352 31.5246 441.254 36.0073 441.254 41.4797C441.254 46.8939 440.381 51.3766 438.637 54.9279C436.893 58.4209 434.48 61.0407 431.399 62.7872C428.318 64.5337 424.772 65.407 420.76 65.407ZM422.068 56.0631C424.684 56.0631 427.01 55.4809 429.045 54.3166C431.138 53.1522 432.795 51.464 434.015 49.2517C435.294 47.0394 435.934 44.4488 435.934 41.4797C435.934 38.4524 435.294 35.8618 434.015 33.7077C432.795 31.4955 431.138 29.8072 429.045 28.6428C427.01 27.4785 424.684 26.8963 422.068 26.8963C419.452 26.8963 417.097 27.4785 415.004 28.6428C412.97 29.8072 411.313 31.4955 410.034 33.7077C408.813 35.8618 408.202 38.4524 408.202 41.4797C408.202 44.4488 408.813 47.0394 410.034 49.2517C411.313 51.464 412.97 53.1522 415.004 54.3166C417.097 55.4809 419.452 56.0631 422.068 56.0631ZM436.196 64.7957V53.7926L436.632 41.3924L435.76 28.9921V0H446.573V64.7957H436.196Z" fill="#42DDA4"/>
<path d="M480.106 65.407C475.339 65.407 471.095 64.3882 467.374 62.3506C463.653 60.2547 460.717 57.4021 458.566 53.7926C456.415 50.1832 455.339 46.0789 455.339 41.4797C455.339 36.8223 456.415 32.718 458.566 29.1668C460.717 25.5573 463.653 22.7338 467.374 20.6962C471.095 18.6586 475.339 17.6398 480.106 17.6398C484.931 17.6398 489.205 18.6586 492.925 20.6962C496.704 22.7338 499.64 25.5282 501.733 29.0795C503.884 32.6307 504.96 36.7641 504.96 41.4797C504.96 46.0789 503.884 50.1832 501.733 53.7926C499.64 57.4021 496.704 60.2547 492.925 62.3506C489.205 64.3882 484.931 65.407 480.106 65.407ZM480.106 56.0631C482.78 56.0631 485.164 55.4809 487.257 54.3166C489.35 53.1522 490.978 51.464 492.141 49.2517C493.361 47.0394 493.972 44.4488 493.972 41.4797C493.972 38.4524 493.361 35.8618 492.141 33.7077C490.978 31.4955 489.35 29.8072 487.257 28.6428C485.164 27.4785 482.809 26.8963 480.193 26.8963C477.519 26.8963 475.135 27.4785 473.042 28.6428C471.007 29.8072 469.38 31.4955 468.159 33.7077C466.938 35.8618 466.327 38.4524 466.327 41.4797C466.327 44.4488 466.938 47.0394 468.159 49.2517C469.38 51.464 471.007 53.1522 473.042 54.3166C475.135 55.4809 477.49 56.0631 480.106 56.0631Z" fill="#42DDA4"/>
<path d="M572.417 17.6398C576.138 17.6398 579.422 18.3675 582.271 19.8229C585.178 21.2784 587.445 23.5197 589.073 26.547C590.701 29.5161 591.515 33.3584 591.515 38.074V64.7957H580.614V39.4712C580.614 35.3378 579.713 32.2523 577.911 30.2147C576.108 28.1771 573.521 27.1583 570.149 27.1583C567.766 27.1583 565.644 27.6823 563.783 28.7302C561.981 29.7781 560.557 31.3208 559.51 33.3584C558.522 35.396 558.028 37.9867 558.028 41.1304V64.7957H547.127V39.4712C547.127 35.3378 546.226 32.2523 544.423 30.2147C542.621 28.1771 540.034 27.1583 536.662 27.1583C534.278 27.1583 532.156 27.6823 530.296 28.7302C528.494 29.7781 527.069 31.3208 526.023 33.3584C525.035 35.396 524.54 37.9867 524.54 41.1304V64.7957H513.64V18.1637H524.017V30.564L522.186 26.8963C523.756 23.869 526.023 21.5695 528.988 19.9976C532.011 18.4257 535.441 17.6398 539.278 17.6398C543.639 17.6398 547.418 18.7168 550.615 20.8708C553.871 23.0249 556.022 26.285 557.068 30.6513L552.795 29.1668C554.307 25.6738 556.807 22.8793 560.295 20.7835C563.783 18.6877 567.824 17.6398 572.417 17.6398Z" fill="#42DDA4"/>
<path d="M330.215 144C325.564 144 321.233 143.243 317.222 141.73C313.268 140.158 309.809 137.975 306.844 135.18C303.937 132.327 301.67 128.98 300.042 125.138C298.414 121.295 297.6 117.104 297.6 112.563C297.6 108.022 298.414 103.83 300.042 99.9879C301.67 96.1455 303.966 92.8271 306.931 90.0327C309.896 87.1801 313.355 84.9969 317.309 83.4833C321.262 81.9114 325.593 81.1255 330.302 81.1255C335.302 81.1255 339.866 81.9988 343.994 83.7453C348.122 85.4336 351.61 87.966 354.459 91.3426L347.133 98.2413C344.924 95.8544 342.453 94.0788 339.721 92.9145C336.988 91.6919 334.023 91.0806 330.826 91.0806C327.628 91.0806 324.692 91.6046 322.018 92.6525C319.402 93.7004 317.105 95.1849 315.129 97.1061C313.21 99.0273 311.698 101.298 310.594 103.918C309.547 106.537 309.024 109.419 309.024 112.563C309.024 115.706 309.547 118.588 310.594 121.208C311.698 123.828 313.21 126.098 315.129 128.019C317.105 129.941 319.402 131.425 322.018 132.473C324.692 133.521 327.628 134.045 330.826 134.045C334.023 134.045 336.988 133.463 339.721 132.298C342.453 131.076 344.924 129.242 347.133 126.797L354.459 133.783C351.61 137.101 348.122 139.634 343.994 141.38C339.866 143.127 335.273 144 330.215 144Z" fill="#42DDA4"/>
<path d="M362.531 143.127V96.4948H372.908V109.332L371.687 105.577C373.083 102.433 375.263 100.046 378.228 98.416C381.251 96.7859 385.001 95.9709 389.477 95.9709V106.363C389.012 106.246 388.576 106.188 388.169 106.188C387.762 106.13 387.355 106.101 386.948 106.101C382.821 106.101 379.536 107.323 377.094 109.768C374.652 112.155 373.432 115.736 373.432 120.509V143.127H362.531Z" fill="#42DDA4"/>
<path d="M418.444 143.738C413.269 143.738 408.735 142.719 404.839 140.682C401.002 138.586 398.008 135.733 395.857 132.124C393.764 128.514 392.718 124.41 392.718 119.811C392.718 115.153 393.735 111.049 395.77 107.498C397.863 103.888 400.712 101.065 404.316 99.0273C407.979 96.9897 412.136 95.9709 416.787 95.9709C421.321 95.9709 425.362 96.9606 428.908 98.9399C432.455 100.919 435.245 103.714 437.28 107.323C439.315 110.933 440.332 115.183 440.332 120.073C440.332 120.538 440.303 121.062 440.245 121.645C440.245 122.227 440.216 122.78 440.158 123.304H401.351V116.056H434.402L430.129 118.326C430.187 115.648 429.635 113.29 428.472 111.253C427.31 109.215 425.711 107.614 423.676 106.45C421.699 105.286 419.403 104.703 416.787 104.703C414.112 104.703 411.758 105.286 409.723 106.45C407.746 107.614 406.177 109.244 405.014 111.34C403.909 113.378 403.357 115.794 403.357 118.588V120.335C403.357 123.129 403.996 125.603 405.275 127.757C406.554 129.911 408.357 131.571 410.682 132.735C413.008 133.899 415.682 134.482 418.705 134.482C421.321 134.482 423.676 134.074 425.769 133.259C427.862 132.444 429.722 131.163 431.35 129.417L437.193 136.141C435.1 138.586 432.455 140.478 429.257 141.817C426.118 143.098 422.513 143.738 418.444 143.738Z" fill="#42DDA4"/>
<path d="M476.473 143.127V133.696L475.862 131.687V115.183C475.862 111.981 474.903 109.506 472.984 107.76C471.066 105.955 468.159 105.053 464.264 105.053C461.648 105.053 459.06 105.46 456.502 106.275C454.002 107.09 451.88 108.226 450.136 109.681L445.863 101.734C448.363 99.8132 451.328 98.3869 454.758 97.4554C458.247 96.4657 461.851 95.9709 465.572 95.9709C472.316 95.9709 477.519 97.6009 481.182 100.861C484.903 104.063 486.763 109.041 486.763 115.794V143.127H476.473ZM461.822 143.738C458.334 143.738 455.282 143.156 452.665 141.992C450.049 140.769 448.014 139.11 446.561 137.014C445.166 134.86 444.468 132.444 444.468 129.766C444.468 127.146 445.078 124.788 446.299 122.693C447.578 120.597 449.642 118.938 452.491 117.715C455.34 116.492 459.119 115.881 463.828 115.881H477.345V123.129H464.613C460.892 123.129 458.392 123.74 457.113 124.963C455.834 126.127 455.194 127.583 455.194 129.329C455.194 131.309 455.979 132.881 457.549 134.045C459.119 135.209 461.299 135.791 464.089 135.791C466.764 135.791 469.147 135.18 471.24 133.958C473.391 132.735 474.932 130.93 475.862 128.543L477.694 135.093C476.647 137.829 474.758 139.954 472.025 141.468C469.351 142.981 465.95 143.738 461.822 143.738Z" fill="#42DDA4"/>
<path d="M516.537 143.738C511.421 143.738 507.468 142.428 504.677 139.808C501.887 137.13 500.491 133.201 500.491 128.019V86.1904H511.392V127.757C511.392 129.97 511.944 131.687 513.049 132.91C514.212 134.132 515.81 134.743 517.845 134.743C520.287 134.743 522.322 134.103 523.95 132.822L527.002 140.594C525.723 141.642 524.153 142.428 522.293 142.952C520.432 143.476 518.514 143.738 516.537 143.738ZM492.817 105.577V96.8441H523.863V105.577H492.817Z" fill="#42DDA4"/>
<path d="M534.225 143.127V96.4948H545.126V143.127H534.225ZM539.719 88.8102C537.684 88.8102 535.998 88.1698 534.661 86.889C533.382 85.6082 532.743 84.0655 532.743 82.2607C532.743 80.3978 533.382 78.855 534.661 77.6325C535.998 76.3517 537.684 75.7113 539.719 75.7113C541.754 75.7113 543.411 76.3226 544.69 77.5451C546.027 78.7095 546.696 80.194 546.696 81.9987C546.696 83.9199 546.056 85.55 544.777 86.889C543.498 88.1698 541.812 88.8102 539.719 88.8102Z" fill="#42DDA4"/>
<path d="M578.619 143.738C573.851 143.738 569.607 142.719 565.887 140.682C562.166 138.586 559.23 135.733 557.079 132.124C554.928 128.514 553.852 124.41 553.852 119.811C553.852 115.153 554.928 111.049 557.079 107.498C559.23 103.888 562.166 101.065 565.887 99.0273C569.607 96.9897 573.851 95.9709 578.619 95.9709C583.444 95.9709 587.717 96.9897 591.438 99.0273C595.217 101.065 598.153 103.859 600.246 107.411C602.397 110.962 603.473 115.095 603.473 119.811C603.473 124.41 602.397 128.514 600.246 132.124C598.153 135.733 595.217 138.586 591.438 140.682C587.717 142.719 583.444 143.738 578.619 143.738ZM578.619 134.394C581.293 134.394 583.677 133.812 585.77 132.648C587.863 131.483 589.49 129.795 590.653 127.583C591.874 125.371 592.485 122.78 592.485 119.811C592.485 116.783 591.874 114.193 590.653 112.039C589.49 109.827 587.863 108.138 585.77 106.974C583.677 105.81 581.322 105.227 578.706 105.227C576.032 105.227 573.648 105.81 571.555 106.974C569.52 108.138 567.892 109.827 566.671 112.039C565.451 114.193 564.84 116.783 564.84 119.811C564.84 122.78 565.451 125.371 566.671 127.583C567.892 129.795 569.52 131.483 571.555 132.648C573.648 133.812 576.003 134.394 578.619 134.394Z" fill="#42DDA4"/>
<path d="M638.576 95.9709C642.297 95.9709 645.61 96.6986 648.517 98.154C651.482 99.6094 653.808 101.851 655.494 104.878C657.18 107.847 658.023 111.689 658.023 116.405V143.127H647.122V117.802C647.122 113.669 646.134 110.583 644.157 108.546C642.239 106.508 639.535 105.489 636.047 105.489C633.489 105.489 631.221 106.013 629.245 107.061C627.268 108.109 625.727 109.681 624.623 111.777C623.576 113.814 623.053 116.405 623.053 119.549V143.127H612.152V96.4948H622.53V109.07L620.699 105.227C622.326 102.258 624.681 99.9879 627.762 98.416C630.902 96.7859 634.506 95.9709 638.576 95.9709Z" fill="#42DDA4"/>
<path d="M684.496 143.738C680.601 143.738 676.851 143.243 673.247 142.253C669.7 141.206 666.88 139.954 664.788 138.498L668.973 130.203C671.066 131.542 673.566 132.648 676.473 133.521C679.38 134.394 682.287 134.831 685.194 134.831C688.624 134.831 691.095 134.365 692.606 133.434C694.176 132.502 694.961 131.25 694.961 129.679C694.961 128.398 694.438 127.437 693.391 126.797C692.345 126.098 690.978 125.574 689.292 125.225C687.607 124.876 685.717 124.555 683.624 124.264C681.589 123.973 679.525 123.595 677.432 123.129C675.398 122.605 673.537 121.877 671.851 120.946C670.165 119.956 668.799 118.646 667.753 117.016C666.706 115.386 666.183 113.232 666.183 110.554C666.183 107.585 667.026 105.024 668.712 102.87C670.398 100.657 672.752 98.969 675.775 97.8047C678.857 96.5821 682.49 95.9709 686.676 95.9709C689.816 95.9709 692.984 96.3202 696.182 97.0188C699.379 97.7174 702.025 98.7071 704.118 99.9879L699.932 108.284C697.722 106.945 695.484 106.042 693.217 105.577C691.008 105.053 688.798 104.791 686.589 104.791C683.275 104.791 680.804 105.286 679.177 106.275C677.607 107.265 676.822 108.517 676.822 110.03C676.822 111.428 677.345 112.475 678.392 113.174C679.438 113.873 680.804 114.426 682.49 114.833C684.176 115.241 686.037 115.59 688.072 115.881C690.165 116.114 692.228 116.492 694.263 117.016C696.298 117.54 698.158 118.268 699.844 119.2C701.589 120.073 702.984 121.324 704.03 122.955C705.077 124.585 705.6 126.71 705.6 129.329C705.6 132.24 704.728 134.773 702.984 136.927C701.298 139.081 698.885 140.769 695.746 141.992C692.606 143.156 688.856 143.738 684.496 143.738Z" fill="#42DDA4"/>
<path d="M0 144V4H47.2V98H110.4V144H0Z" fill="#42DDA4"/>
<path fill-rule="evenodd" clip-rule="evenodd" d="M139.736 4C150.971 27.6495 175.076 44 203 44C230.924 44 255.029 27.6495 266.264 4H139.736Z" fill="#42DDA4"/>
<path fill-rule="evenodd" clip-rule="evenodd" d="M134.025 144C133.351 140.101 133 136.091 133 132C133 93.3401 164.34 62 203 62C241.66 62 273 93.3401 273 132C273 136.091 272.649 140.101 271.975 144H228.305C230.033 140.363 231 136.294 231 132C231 116.536 218.464 104 203 104C187.536 104 175 116.536 175 132C175 136.294 175.967 140.363 177.695 144H134.025Z" fill="#42DDA4"/>
</svg>
